<?xml version="1.0" standalone="no"?><!DOCTYPE svg PUBLIC "-//W3C//DTD SVG 1.1//EN" "http://www.w3.org/Graphics/SVG/1.1/DTD/svg11.dtd"><svg height="80" node-id="1" sillyvg="true" template-height="80" template-width="80" version="1.1" viewBox="0 0 80 80" width="80" xmlns="http://www.w3.org/2000/svg" xmlns:xlink="http://www.w3.org/1999/xlink"><defs node-id="13"></defs><path d="M 25.00 12.52 C 13.82 21.69 13.60 30.88 19.30 39.75 C 25.00 48.62 9.11 48.00 7.22 48.61 C 5.33 49.22 -4.78 68.88 21.15 64.45 C 47.08 60.02 54.71 60.05 59.78 67.00 C 64.85 73.95 75.61 61.93 73.71 49.89 C 71.81 37.85 62.31 23.89 69.91 18.89 C 77.51 13.89 58.51 6.18 49.00 12.52 C 39.49 18.86 31.63 7.00 25.00 12.52 Z" fill="#ffffff" fill-rule="nonzero" node-id="16" stroke="none" target-height="67.77" target-width="82.29" target-x="-4.78" target-y="6.18"></path><path d="M 63.42 69.59 C 61.77 69.55 60.24 68.70 59.34 67.32 C 54.63 60.85 47.86 60.44 21.24 64.98 C 8.16 67.22 4.31 63.30 3.39 59.62 C 2.16 54.72 5.69 48.55 7.00 48.10 C 7.76 47.92 8.54 47.82 9.32 47.79 C 12.47 47.50 18.32 46.97 19.64 44.32 C 20.17 43.22 19.87 41.78 18.75 40.04 C 12.32 30.00 14.28 20.57 24.60 12.10 L 24.60 12.10 C 28.00 9.30 31.60 10.66 35.47 12.10 C 39.64 13.65 43.94 15.26 48.71 12.10 C 51.99 9.92 56.77 9.10 61.84 9.90 C 66.37 10.59 70.20 12.41 71.61 14.53 C 72.13 15.24 72.32 16.14 72.12 17.00 C 71.79 17.98 71.11 18.81 70.21 19.32 C 65.48 22.48 67.91 29.45 70.73 37.53 C 72.26 41.52 73.44 45.64 74.25 49.83 C 75.58 58.29 70.82 66.99 65.68 69.13 C 64.96 69.43 64.20 69.58 63.42 69.59 Z M 46.20 60.86 C 46.95 60.86 47.66 60.86 48.33 60.86 C 54.02 61.18 57.46 62.86 60.22 66.63 C 61.28 68.31 63.43 68.92 65.22 68.06 C 71.00 65.74 74.19 56.42 73.18 50.00 C 72.37 45.87 71.21 41.82 69.71 37.89 C 66.86 29.74 64.18 22.04 69.61 18.42 C 70.28 18.05 70.80 17.44 71.07 16.72 C 71.19 16.16 71.06 15.57 70.71 15.11 C 68.33 11.53 56.20 8.37 49.31 13.00 C 44.08 16.49 39.31 14.71 35.09 13.14 C 31.40 11.76 28.21 10.57 25.29 12.97 L 25.29 12.97 C 15.29 21.15 13.49 29.82 19.70 39.48 C 21.04 41.57 21.36 43.36 20.65 44.82 C 19.09 48.02 13.06 48.57 9.46 48.90 C 8.76 48.93 8.07 49.02 7.39 49.16 C 6.59 49.52 3.17 55.28 4.54 59.73 C 5.91 64.18 11.60 65.55 21.06 63.94 C 32.00 62.00 40.24 60.86 46.20 60.86 Z" fill="#020202" fill-rule="nonzero" node-id="18" stroke="none" target-height="61.219997" target-width="73.42" target-x="2.16" target-y="8.37"></path><path d="M 51.33 27.88 C 51.33 31.61 47.27 36.58 42.26 36.58 C 37.25 36.58 33.18 33.58 33.18 29.83 C 33.18 26.08 37.24 23.07 42.26 23.07 C 47.28 23.07 51.33 24.15 51.33 27.88 Z" fill="#ffbf31" fill-rule="nonzero" node-id="20" stroke="none" target-height="13.510002" target-width="18.150002" target-x="33.18" target-y="23.07"></path><path d="M 42.26 37.12 C 36.95 37.12 32.64 33.85 32.64 29.83 C 32.64 25.81 36.95 22.53 42.26 22.53 C 48.64 22.53 51.88 24.33 51.88 27.88 C 51.88 32.00 47.44 37.12 42.26 37.12 Z M 42.26 23.61 C 37.55 23.61 33.72 26.40 33.72 29.83 C 33.72 33.26 37.55 36.00 42.26 36.00 C 46.02 36.00 50.79 32.16 50.79 27.84 C 50.79 25.00 48.00 23.61 42.26 23.61 Z" fill="#020202" fill-rule="nonzero" node-id="22" stroke="none" target-height="14.589998" target-width="19.240002" target-x="32.64" target-y="22.53"></path></svg>